<svg xmlns="http://www.w3.org/2000/svg" version="1.1" xmlns:xlink="http://www.w3.org/1999/xlink" xmlns:svgjs="http://svgjs.com/svgjs" width="1500" height="2000" preserveAspectRatio="none" viewBox="0 0 1500 2000"><g clip-path="url(&quot;#SvgjsClipPath1129&quot;)" fill="none"><rect width="1500" height="2000" x="0" y="0" fill="#0e2a47"></rect><circle r="250" cx="-83.56" cy="66.46" stroke="#365aa3" stroke-opacity="0.25" stroke-width="2"></circle><circle r="250" cx="1187.71" cy="1028.41" stroke="#365aa3" stroke-opacity="0.25" stroke-width="2"></circle><circle r="352.405" cx="1246.02" cy="1869.86" stroke="#365aa3" stroke-opacity="0.25" stroke-width="2"></circle><circle r="252.975" cx="238.85" cy="486.83" stroke="#365aa3" stroke-opacity="0.25" stroke-width="2"></circle><circle r="350.01" cx="620.18" cy="1123.34" stroke="#365aa3" stroke-opacity="0.25" stroke-width="2"></circle><circle r="135.93" cx="1244.3" cy="1273.45" stroke="#365aa3" stroke-opacity="0.25" stroke-width="2"></circle><circle r="316.27" cx="1257.87" cy="1469.82" stroke="#365aa3" stroke-opacity="0.25" stroke-width="2"></circle><circle r="296.585" cx="1416.5" cy="639.84" stroke="#365aa3" stroke-opacity="0.25" stroke-width="2"></circle><circle r="177.285" cx="1264.47" cy="1009.43" stroke="#365aa3" stroke-opacity="0.25" stroke-width="2"></circle><circle r="147.59" cx="973.56" cy="1913.44" stroke="#365aa3" stroke-opacity="0.25" stroke-width="2"></circle><circle r="232.27" cx="1013.69" cy="1830.56" stroke="#365aa3" stroke-opacity="0.25" stroke-width="2"></circle><circle r="320.7" cx="906.24" cy="523.19" stroke="#365aa3" stroke-opacity="0.25" stroke-width="2"></circle><circle r="328.83" cx="560.15" cy="143.61" stroke="#365aa3" stroke-opacity="0.25" stroke-width="2"></circle><circle r="305.15" cx="796.83" cy="566.39" stroke="#365aa3" stroke-opacity="0.25" stroke-width="2"></circle><circle r="291.57" cx="844.74" cy="725.73" stroke="#365aa3" stroke-opacity="0.25" stroke-width="2"></circle><circle r="315.86" cx="1332.03" cy="521.99" stroke="#365aa3" stroke-opacity="0.25" stroke-width="2"></circle><circle r="460.87" cx="1410.26" cy="463.32" stroke="#365aa3" stroke-opacity="0.25" stroke-width="2"></circle><circle r="486.135" cx="1126.23" cy="258.61" stroke="#365aa3" stroke-opacity="0.25" stroke-width="2"></circle><circle r="484.71" cx="55.64" cy="1984.33" stroke="#365aa3" stroke-opacity="0.25" stroke-width="2"></circle></g><defs><clipPath id="SvgjsClipPath1129"><rect width="1500" height="2000" x="0" y="0"></rect></clipPath></defs></svg>